{
    "accessors" : [
        {
            "bufferView" : 0,
            "componentType" : 5123,
            "count" : 2970,
            "max" : [
                1985
            ],
            "min" : [
                0
            ],
            "type" : "SCALAR"
        },
        {
            "bufferView" : 1,
            "componentType" : 5126,
            "count" : 1986,
            "max" : [
                1.3671875,
                0.984375,
                0.8515625
            ],
            "min" : [
                -1.3671875,
                -0.984375,
                -0.8515625
            ],
            "type" : "VEC3"
        },
        {
            "bufferView" : 2,
            "componentType" : 5126,
            "count" : 1986,
            "max" : [
                1.0,
                0.9970182180404663,
                1.0
            ],
            "min" : [
                -1.0,
                -0.992402970790863,
                -0.9864740371704102
            ],
            "type" : "VEC3"
        },
        {
            "bufferView" : 3,
            "componentType" : 5126,
            "count" : 1986,
            "max" : [
                1.0,
                0.9985296130180359,
                0.9960632920265198,
                1.0
            ],
            "min" : [
                -0.9956216812133789,
                -0.9937681555747986,
                -0.9973551034927368,
                1.0
            ],
            "type" : "VEC4"
        },
        {
            "bufferView" : 4,
            "componentType" : 5126,
            "count" : 1986,
            "max" : [
                0.9998814463615417,
                0.9998813555212109
            ],
            "min" : [
                0.00011864447878906503,
                0.06660729646682739
            ],
            "type" : "VEC2"
        }
    ],
    "asset" : {
        "generator" : "Khronos Blender glTF 2.0 exporter",
        "version" : "2.0"
    },
    "bufferViews" : [
        {
            "buffer" : 0,
            "byteLength" : 5940,
            "byteOffset" : 0,
            "target" : 34963
        },
        {
            "buffer" : 0,
            "byteLength" : 23832,
            "byteOffset" : 5940,
            "target" : 34962
        },
        {
            "buffer" : 0,
            "byteLength" : 23832,
            "byteOffset" : 29772,
            "target" : 34962
        },
        {
            "buffer" : 0,
            "byteLength" : 31776,
            "byteOffset" : 53604,
            "target" : 34962
        },
        {
            "buffer" : 0,
            "byteLength" : 15888,
            "byteOffset" : 85380,
            "target" : 34962
        }
    ],
    "buffers" : [
        {
            "byteLength" : 101268,
            "uri" : "data:application/octet-stream;base64,"
        }
    ],
    "images" : [
        {
            "mimeType" : "image/jpeg",
            "name" : "TexturesCom_Wicker_1024_albedo",
            "uri" : "data:image/jpeg;base64,"
        },
        {
            "mimeType" : "image/jpeg",
            "name" : "TexturesCom_WoodFloorA_1024_normal",
            "uri" : "data:image/jpeg;base64,"
        }
    ],
    "materials" : [
        {
            "name" : "Material.001",
            "normalTexture" : {
                "index" : 1,
                "scale" : 1.0000001192092896
            },
            "pbrMetallicRoughness" : {
                "baseColorTexture" : {
                    "index" : 0
                }
            }
        }
    ],
    "meshes" : [
        {
            "name" : "Suzanne",
            "primitives" : [
                {
                    "attributes" : {
                        "NORMAL" : 2,
                        "POSITION" : 1,
                        "TANGENT" : 3,
                        "TEXCOORD_0" : 4
                    },
                    "indices" : 0,
                    "material" : 0
                }
            ]
        }
    ],
    "nodes" : [
        {
            "name" : "Sun",
            "rotation" : [
                0.034184109419584274,
                -0.8458192944526672,
                -0.44302546977996826,
                0.2952111065387726
            ],
            "translation" : [
                1.2733339071273804,
                4.916998386383057,
                5.484823226928711
            ]
        },
        {
            "mesh" : 0,
            "name" : "Suzanne",
            "translation" : [
                -0.009363566525280476,
                1.0,
                -0.0
            ]
        }
    ],
    "samplers" : [
        {}
    ],
    "scene" : 0,
    "scenes" : [
        {
            "name" : "Scene",
            "nodes" : [
                0,
                1
            ]
        }
    ],
    "textures" : [
        {
            "sampler" : 0,
            "source" : 0
        },
        {
            "sampler" : 0,
            "source" : 1
        }
    ]
}
